<?xml version="1.0" encoding="UTF-8"?> <svg xmlns="http://www.w3.org/2000/svg" xmlns:xlink="http://www.w3.org/1999/xlink" id="Layer_1" data-name="Layer 1" viewBox="0 0 842.37 407.42"><defs><style> body{ margin: 0; padding: 0; } svg{ height: 3000px; width: 2000px; position: absolute; top: 50%; left: 50%; transform: translate(-50%, -50%); } #_1 { animation-name: diamondOpacity; animation-duration: 1s; animation-iteration-count: infinite; animation-delay:1.1s; } @keyframes diamondOpacity { 0% { opacity: 0; } 100% { opacity: 1; } } #_2 { animation-name: diamondOpacity; animation-duration: 1s; animation-iteration-count: infinite; animation-delay: 1.2s; } @keyframes diamondOpacity { 0% { opacity: 0; } 100% { opacity: 1; } } #_3 { animation-name: diamondOpacity; animation-duration: 1s; animation-iteration-count: infinite; animation-delay: 1.2s; } @keyframes diamondOpacity { 0% { opacity: 0; } 100% { opacity: 1; } } #_4 { animation-name: diamondOpacity; animation-duration: 1s; animation-iteration-count: infinite; animation-delay: 1.25s; } @keyframes diamondOpacity { 0% { opacity: 0; } 100% { opacity: 1; } } #_5 { animation-name: diamondOpacity; animation-duration: 1s; animation-iteration-count: infinite; animation-delay: 1.3s; } @keyframes diamondOpacity { 0% { opacity: 0; } 100% { opacity: 1; } } #_6 { animation-name: diamondOpacity; animation-duration: 1s; animation-iteration-count: infinite; animation-delay: 1.35s; } @keyframes diamondOpacity { 0% { opacity: 0; } 100% { opacity: 1; } } #_7 { animation-name: diamondOpacity; animation-duration: 1s; animation-iteration-count: infinite; animation-delay: 1.4s; } @keyframes diamondOpacity { 0% { opacity: 0; } 100% { opacity: 1; } } #_8 { animation-name: diamondOpacity; animation-duration: 1s; animation-iteration-count: infinite; animation-delay: 1.45s; } @keyframes diamondOpacity { 0% { opacity: 0; } 100% { opacity: 1; } } #_9 { animation-name: diamondOpacity; animation-duration: 1s; animation-iteration-count: infinite; animation-delay: 1.5s; } @keyframes diamondOpacity { 0% { opacity: 0; } 100% { opacity: 1; } } #_10 { animation-name: diamondOpacity; animation-duration: 1s; animation-iteration-count: infinite; animation-delay: 1.6s; } @keyframes diamondOpacity { 0% { opacity: 0; } 100% { opacity: 1; } } #_11 { animation-name: diamondOpacity; animation-duration: 1s; animation-iteration-count: infinite; animation-delay: 1.65s; } @keyframes diamondOpacity { 0% { opacity: 0; } 100% { opacity: 1; } } #_12 { animation-name: diamondOpacity; animation-duration: 1s; animation-iteration-count: infinite; animation-delay: 1.7s; } @keyframes diamondOpacity { 0% { opacity: 0; } 100% { opacity: 1; } } #_13 { animation-name: diamondOpacity; animation-duration: 1s; animation-iteration-count: infinite; animation-delay: 1.75s; } @keyframes diamondOpacity { 0% { opacity: 0; } 100% { opacity: 1; } } #_14 { animation-name: diamondOpacity; animation-duration: 1s; animation-iteration-count: infinite; animation-delay: 1.8s; } @keyframes diamondOpacity { 0% { opacity: 0; } 100% { opacity: 1; } } #_15 { animation-name: diamondOpacity; animation-duration: 1s; animation-iteration-count: infinite; animation-delay: 1.85s; } @keyframes diamondOpacity { 0% { opacity: 0; } 100% { opacity: 1; } } #_16 { animation-name: diamondOpacity; animation-duration: 1s; animation-iteration-count: infinite; animation-delay: 1.9s; } @keyframes diamondOpacity { 0% { opacity: 0; } 100% { opacity: 1; } } #_17 { animation-name: diamondOpacity; animation-duration: 1s; animation-iteration-count: infinite; animation-delay: 1.95s; } @keyframes diamondOpacity { 0% { opacity: 0; } 100% { opacity: 1; } } #_18 { animation-name: diamondOpacity; animation-duration: 1s; animation-iteration-count: infinite; animation-delay: 2s; } @keyframes diamondOpacity { 0% { opacity: 0; } 100% { opacity: 1; } } #_19 { animation-name: diamondOpacity; animation-duration: 1s; animation-iteration-count: infinite; animation-delay: 2.1s; } @keyframes diamondOpacity { 0% { opacity: 0; } 100% { opacity: 1; } } #_20 { animation-name: diamondOpacity; animation-duration: 1s; animation-iteration-count: infinite; animation-delay: 2.15s; } @keyframes diamondOpacity { 0% { opacity: 0; } 100% { opacity: 1; } } #_21 { animation-name: diamondOpacity; animation-duration: 1s; animation-iteration-count: infinite; animation-delay: 2.2s; } @keyframes diamondOpacity { 0% { opacity: 0; } 100% { opacity: 1; } } #_22 { animation-name: diamondOpacity; animation-duration: 1s; animation-iteration-count: infinite; animation-delay: 2.25s; } @keyframes diamondOpacity { 0% { opacity: 0; } 100% { opacity: 1; } } #_23 { animation-name: diamondOpacity; animation-duration: 1s; animation-iteration-count: infinite; animation-delay: 2.3s; } @keyframes diamondOpacity { 0% { opacity: 0; } 100% { opacity: 1; } } #_24 { animation-name: diamondOpacity; animation-duration: 1s; animation-iteration-count: infinite; animation-delay: 2.35s; } @keyframes diamondOpacity { 0% { opacity: 0; } 100% { opacity: 1; } } #_25 { animation-name: diamondOpacity; animation-duration: 1s; animation-iteration-count: infinite; animation-delay: 2.4s; } @keyframes diamondOpacity { 0% { opacity: 0; } 100% { opacity: 1; } } #_26 { animation-name: diamondOpacity; animation-duration: 1s; animation-iteration-count: infinite; animation-delay: 2.45s; } @keyframes diamondOpacity { 0% { opacity: 0; } 100% { opacity: 1; } } #_27 { animation-name: diamondOpacity; animation-duration: 1s; animation-iteration-count: infinite; animation-delay: 2.5s; } @keyframes diamondOpacity { 0% { opacity: 0; } 100% { opacity: 1; } } #_28 { animation-name: diamondOpacity; animation-duration: 1s; animation-iteration-count: infinite; animation-delay: 2.55s; } @keyframes diamondOpacity { 0% { opacity: 0; } 100% { opacity: 1; } } #_29 { animation-name: diamondOpacity; animation-duration: 1s; animation-iteration-count: infinite; animation-delay: 2.6s; } @keyframes diamondOpacity { 0% { opacity: 0; } 100% { opacity: 1; } } #_30 { animation-name: diamondOpacity; animation-duration: 1s; animation-iteration-count: infinite; animation-delay: 2.65s; } @keyframes diamondOpacity { 0% { opacity: 0; } 100% { opacity: 1; } } #_31 { animation-name: diamondOpacity; animation-duration: 1s; animation-iteration-count: infinite; animation-delay: 2.7s; } @keyframes diamondOpacity { 0% { opacity: 0; } 100% { opacity: 1; } } #_32 { animation-name: diamondOpacity; animation-duration: 1s; animation-iteration-count: infinite; animation-delay: 2.75s; } @keyframes diamondOpacity { 0% { opacity: 0; } 100% { opacity: 1; } } </style><linearGradient id="linear-gradient" x1="421.93" y1="409" x2="421.93" y2="79.51" gradientTransform="matrix(1, 0, 0, -1, 0, 410)" gradientUnits="userSpaceOnUse"><stop offset="0" stop-color="#d59ec5"></stop><stop offset="0.34" stop-color="#f3c279"></stop><stop offset="0.7" stop-color="#d6efeb"></stop><stop offset="1" stop-color="#00c3f8"></stop></linearGradient><linearGradient id="linear-gradient-2" x1="421.93" y1="406.52" x2="421.93" y2="77.02" xlink:href="#linear-gradient"></linearGradient><linearGradient id="linear-gradient-3" x1="421.93" y1="404.04" x2="421.93" y2="74.54" xlink:href="#linear-gradient"></linearGradient><linearGradient id="linear-gradient-4" x1="421.93" y1="401.56" x2="421.93" y2="72.06" xlink:href="#linear-gradient"></linearGradient><linearGradient id="linear-gradient-5" x1="421.93" y1="399.07" x2="421.93" y2="69.58" xlink:href="#linear-gradient"></linearGradient><linearGradient id="linear-gradient-6" x1="421.93" y1="396.59" x2="421.93" y2="67.1" xlink:href="#linear-gradient"></linearGradient><linearGradient id="linear-gradient-7" x1="421.93" y1="394.11" x2="421.93" y2="64.62" xlink:href="#linear-gradient"></linearGradient><linearGradient id="linear-gradient-8" x1="421.93" y1="391.63" x2="421.93" y2="62.14" xlink:href="#linear-gradient"></linearGradient><linearGradient id="linear-gradient-9" x1="421.93" y1="389.15" x2="421.93" y2="59.65" xlink:href="#linear-gradient"></linearGradient><linearGradient id="linear-gradient-10" x1="421.93" y1="386.67" x2="421.93" y2="57.17" xlink:href="#linear-gradient"></linearGradient><linearGradient id="linear-gradient-11" x1="421.93" y1="384.19" x2="421.93" y2="54.69" xlink:href="#linear-gradient"></linearGradient><linearGradient id="linear-gradient-12" x1="421.93" y1="381.71" x2="421.93" y2="52.21" xlink:href="#linear-gradient"></linearGradient><linearGradient id="linear-gradient-13" x1="421.93" y1="379.22" x2="421.93" y2="49.73" xlink:href="#linear-gradient"></linearGradient><linearGradient id="linear-gradient-14" x1="421.93" y1="376.74" x2="421.93" y2="47.25" xlink:href="#linear-gradient"></linearGradient><linearGradient id="linear-gradient-15" x1="421.93" y1="374.26" x2="421.93" y2="44.77" xlink:href="#linear-gradient"></linearGradient><linearGradient id="linear-gradient-16" x1="421.93" y1="371.78" x2="421.93" y2="42.29" xlink:href="#linear-gradient"></linearGradient><linearGradient id="linear-gradient-17" x1="421.93" y1="369.3" x2="421.93" y2="39.8" xlink:href="#linear-gradient"></linearGradient><linearGradient id="linear-gradient-18" x1="421.93" y1="366.82" x2="421.93" y2="37.32" xlink:href="#linear-gradient"></linearGradient><linearGradient id="linear-gradient-19" x1="421.93" y1="364.34" x2="421.93" y2="34.84" xlink:href="#linear-gradient"></linearGradient><linearGradient id="linear-gradient-20" x1="421.93" y1="361.85" x2="421.93" y2="32.36" xlink:href="#linear-gradient"></linearGradient><linearGradient id="linear-gradient-21" x1="421.93" y1="359.37" x2="421.93" y2="29.88" xlink:href="#linear-gradient"></linearGradient><linearGradient id="linear-gradient-22" x1="421.93" y1="356.89" x2="421.93" y2="27.4" xlink:href="#linear-gradient"></linearGradient><linearGradient id="linear-gradient-23" x1="421.93" y1="354.41" x2="421.93" y2="24.92" xlink:href="#linear-gradient"></linearGradient><linearGradient id="linear-gradient-24" x1="421.93" y1="351.93" x2="421.93" y2="22.43" xlink:href="#linear-gradient"></linearGradient><linearGradient id="linear-gradient-25" x1="421.93" y1="349.45" x2="421.93" y2="19.95" xlink:href="#linear-gradient"></linearGradient><linearGradient id="linear-gradient-26" x1="421.93" y1="346.97" x2="421.93" y2="17.47" xlink:href="#linear-gradient"></linearGradient><linearGradient id="linear-gradient-27" x1="421.93" y1="344.49" x2="421.93" y2="14.99" xlink:href="#linear-gradient"></linearGradient><linearGradient id="linear-gradient-28" x1="421.93" y1="342" x2="421.93" y2="12.51" xlink:href="#linear-gradient"></linearGradient><linearGradient id="linear-gradient-29" x1="421.93" y1="339.52" x2="421.93" y2="10.03" xlink:href="#linear-gradient"></linearGradient><linearGradient id="linear-gradient-30" x1="421.93" y1="337.04" x2="421.93" y2="7.55" xlink:href="#linear-gradient"></linearGradient><linearGradient id="linear-gradient-31" x1="421.93" y1="334.56" x2="421.93" y2="5.07" xlink:href="#linear-gradient"></linearGradient><linearGradient id="linear-gradient-32" x1="421.93" y1="332.08" x2="421.93" y2="2.59" xlink:href="#linear-gradient"></linearGradient></defs><title>wave</title><path id="_1" data-name="1" d="M1,325.49c3.31-2,115.46,34.21,58.72-62.86s72,1.65,85.2-42.18c0,0,65.34,38,96.77-19s110-14.06,117.45,19,177-63.69,144.74,49.62S479.07,206.39,561,234.51c0,0,57.89,35.56,73.61-14.06,0,0-46.32-167.91,51.28-92.64s60.38-65.34,75.27-86S782.62-9.49,843,4.57" transform="translate(-0.74 -0.5)" fill="none" stroke="url(#linear-gradient)"></path><path id="_2" data-name="2" d="M1,328c3.31-2,115.46,34.22,58.72-62.86s72,1.66,85.2-42.18c0,0,65.34,38.05,96.77-19s110-14.06,117.45,19,177-63.69,144.74,49.63S479.07,208.87,561,237c0,0,57.89,35.57,73.61-14.06,0,0-46.32-167.9,51.28-92.64s60.38-65.34,75.27-86S782.62-7,843,7.05" transform="translate(-0.74 -0.5)" fill="none" stroke="url(#linear-gradient-2)"></path><path id="_3" data-name="3" d="M1,330.45c3.31-2,115.46,34.22,58.72-62.86s72,1.66,85.2-42.18c0,0,65.34,38,96.77-19s110-14.07,117.45,19,177-63.69,144.74,49.63S479.07,211.35,561,239.47c0,0,57.89,35.57,73.61-14.06,0,0-46.32-167.9,51.28-92.64s60.38-65.34,75.27-86S782.62-4.53,843,9.53" transform="translate(-0.74 -0.5)" fill="none" stroke="url(#linear-gradient-3)"></path><path id="_4" data-name="4" d="M1,332.93c3.31-2,115.46,34.22,58.72-62.85s72,1.65,85.2-42.19c0,0,65.34,38.05,96.77-19s110-14.06,117.45,19,177-63.69,144.74,49.63S479.07,213.83,561,242c0,0,57.89,35.57,73.61-14.06,0,0-46.32-167.9,51.28-92.63s60.38-65.35,75.27-86S782.62-2,843,12" transform="translate(-0.74 -0.5)" fill="none" stroke="url(#linear-gradient-4)"></path><path id="_5" data-name="5" d="M1,335.42c3.31-2,115.46,34.21,58.72-62.86s72,1.65,85.2-42.19c0,0,65.34,38.05,96.77-19s110-14.06,117.45,19,177-63.68,144.74,49.63S479.07,216.31,561,244.43c0,0,57.89,35.57,73.61-14.06,0,0-46.32-167.9,51.28-92.63s60.38-65.35,75.27-86S782.62.44,843,14.5" transform="translate(-0.74 -0.5)" fill="none" stroke="url(#linear-gradient-5)"></path><path id="_6" data-name="6" d="M1,337.9c3.31-2,115.46,34.21,58.72-62.86s72,1.65,85.2-42.19c0,0,65.34,38,96.77-19s110-14.06,117.45,19,177-63.68,144.74,49.63S479.07,218.79,561,246.91c0,0,57.89,35.57,73.61-14.06,0,0-46.32-167.9,51.28-92.63s60.38-65.34,75.27-86S782.62,2.92,843,17" transform="translate(-0.74 -0.5)" fill="none" stroke="url(#linear-gradient-6)"></path><path id="_7" data-name="7" d="M1,340.38c3.31-2,115.46,34.21,58.72-62.86s72,1.65,85.2-42.18c0,0,65.34,38,96.77-19s110-14.06,117.45,19,177-63.69,144.74,49.62S479.07,221.27,561,249.4c0,0,57.89,35.56,73.61-14.06,0,0-46.32-167.91,51.28-92.64s60.38-65.34,75.27-86S782.62,5.4,843,19.46" transform="translate(-0.74 -0.5)" fill="none" stroke="url(#linear-gradient-7)"></path><path id="_8" data-name="8" d="M1,342.86c3.31-2,115.46,34.21,58.72-62.86s72,1.65,85.2-42.18c0,0,65.34,38,96.77-19s110-14.06,117.45,19,177-63.69,144.74,49.62S479.07,223.76,561,251.88c0,0,57.89,35.56,73.61-14.06,0,0-46.32-167.91,51.28-92.64s60.38-65.34,75.27-86S782.62,7.88,843,21.94" transform="translate(-0.74 -0.5)" fill="none" stroke="url(#linear-gradient-8)"></path><path id="_9" data-name="9" d="M1,345.34c3.31-2,115.46,34.21,58.72-62.86s72,1.66,85.2-42.18c0,0,65.34,38.05,96.77-19s110-14.06,117.45,19,177-63.69,144.74,49.62S479.07,226.24,561,254.36c0,0,57.89,35.56,73.61-14.06,0,0-46.32-167.91,51.28-92.64s60.38-65.34,75.27-86S782.62,10.36,843,24.42" transform="translate(-0.74 -0.5)" fill="none" stroke="url(#linear-gradient-9)"></path><path id="_10" data-name="10" d="M1,347.82c3.31-2,115.46,34.22,58.72-62.86s72,1.66,85.2-42.18c0,0,65.34,38,96.77-19s110-14.06,117.45,19,177-63.69,144.74,49.63S479.07,228.72,561,256.84c0,0,57.89,35.57,73.61-14.06,0,0-46.32-167.9,51.28-92.64s60.38-65.34,75.27-86S782.62,12.84,843,26.9" transform="translate(-0.74 -0.5)" fill="none" stroke="url(#linear-gradient-10)"></path><path id="_11" data-name="11" d="M1,350.3c3.31-2,115.46,34.22,58.72-62.86s72,1.66,85.2-42.18c0,0,65.34,38.05,96.77-19s110-14.06,117.45,19,177-63.69,144.74,49.63S479.07,231.2,561,259.32c0,0,57.89,35.57,73.61-14.06,0,0-46.32-167.9,51.28-92.64s60.38-65.34,75.27-86S782.62,15.32,843,29.38" transform="translate(-0.74 -0.5)" fill="none" stroke="url(#linear-gradient-11)"></path><path id="_12" data-name="12" d="M1,352.79c3.31-2,115.46,34.21,58.72-62.87s72,1.66,85.2-42.18c0,0,65.34,38.05,96.77-19s110-14.06,117.45,19,177-63.69,144.74,49.63S479.07,233.68,561,261.8c0,0,57.89,35.57,73.61-14.06,0,0-46.32-167.9,51.28-92.63s60.38-65.35,75.27-86S782.62,17.81,843,31.87" transform="translate(-0.74 -0.5)" fill="none" stroke="url(#linear-gradient-12)"></path><path id="_13" data-name="13" d="M1,355.27c3.31-2,115.46,34.21,58.72-62.86s72,1.65,85.2-42.19c0,0,65.34,38,96.77-19s110-14.06,117.45,19,177-63.68,144.74,49.63S479.07,236.16,561,264.29c0,0,57.89,35.56,73.61-14.07,0,0-46.32-167.9,51.28-92.63s60.38-65.34,75.27-86S782.62,20.29,843,34.35" transform="translate(-0.74 -0.5)" fill="none" stroke="url(#linear-gradient-13)"></path><path id="_14" data-name="14" d="M1,357.75c3.31-2,115.46,34.21,58.72-62.86s72,1.65,85.2-42.18c0,0,65.34,38,96.77-19s110-14.06,117.45,19,177-63.69,144.74,49.62S479.07,238.64,561,266.77c0,0,57.89,35.56,73.61-14.06,0,0-46.32-167.91,51.28-92.64s60.38-65.34,75.27-86S782.62,22.77,843,36.83" transform="translate(-0.74 -0.5)" fill="none" stroke="url(#linear-gradient-14)"></path><path id="_15" data-name="15" d="M1,360.23c3.31-2,115.46,34.21,58.72-62.86s72,1.65,85.2-42.18c0,0,65.34,38,96.77-19s110-14.06,117.45,19,177-63.69,144.74,49.62S479.07,241.13,561,269.25c0,0,57.89,35.56,73.61-14.06,0,0-46.32-167.91,51.28-92.64s60.38-65.34,75.27-86S782.62,25.25,843,39.31" transform="translate(-0.74 -0.5)" fill="none" stroke="url(#linear-gradient-15)"></path><path id="_16" data-name="16" d="M1,362.71c3.31-2,115.46,34.21,58.72-62.86s72,1.66,85.2-42.18c0,0,65.34,38,96.77-19s110-14.06,117.45,19,177-63.69,144.74,49.62S479.07,243.61,561,271.73c0,0,57.89,35.56,73.61-14.06,0,0-46.32-167.91,51.28-92.64s60.38-65.34,75.27-86S782.62,27.73,843,41.79" transform="translate(-0.74 -0.5)" fill="none" stroke="url(#linear-gradient-16)"></path><path id="_17" data-name="17" d="M1,365.19c3.31-2,115.46,34.22,58.72-62.86s72,1.66,85.2-42.18c0,0,65.34,38.05,96.77-19s110-14.06,117.45,19,177-63.69,144.74,49.63S479.07,246.09,561,274.21c0,0,57.89,35.57,73.61-14.06,0,0-46.32-167.9,51.28-92.64s60.38-65.34,75.27-86S782.62,30.21,843,44.27" transform="translate(-0.74 -0.5)" fill="none" stroke="url(#linear-gradient-17)"></path><path id="_18" data-name="18" d="M1,367.67c3.31-2,115.46,34.22,58.72-62.86s72,1.66,85.2-42.18c0,0,65.34,38.05,96.77-19s110-14.06,117.45,19,177-63.69,144.74,49.63S479.07,248.57,561,276.69c0,0,57.89,35.57,73.61-14.06,0,0-46.32-167.9,51.28-92.64s60.38-65.34,75.27-86S782.62,32.69,843,46.75" transform="translate(-0.74 -0.5)" fill="none" stroke="url(#linear-gradient-18)"></path><path id="_19" data-name="19" d="M1,370.15c3.31-2,115.46,34.22,58.72-62.86s72,1.66,85.2-42.18c0,0,65.34,38.05,96.77-19s110-14.06,117.45,19,177-63.69,144.74,49.63S479.07,251.05,561,279.17c0,0,57.89,35.57,73.61-14.06,0,0-46.32-167.9,51.28-92.63s60.38-65.35,75.27-86S782.62,35.17,843,49.24" transform="translate(-0.74 -0.5)" fill="none" stroke="url(#linear-gradient-19)"></path><path id="_20" data-name="20" d="M1,372.64c3.31-2,115.46,34.21,58.72-62.86s72,1.65,85.2-42.19c0,0,65.34,38.05,96.77-19s110-14.06,117.45,19,177-63.69,144.74,49.63S479.07,253.53,561,281.65c0,0,57.89,35.57,73.61-14.06,0,0-46.32-167.9,51.28-92.63s60.38-65.35,75.27-86S782.62,37.66,843,51.72" transform="translate(-0.74 -0.5)" fill="none" stroke="url(#linear-gradient-20)"></path><path id="_21" data-name="21" d="M1,375.12c3.31-2,115.46,34.21,58.72-62.86s72,1.65,85.2-42.19c0,0,65.34,38.05,96.77-19s110-14.06,117.45,19,177-63.68,144.74,49.63S479.07,256,561,284.14c0,0,57.89,35.56,73.61-14.07,0,0-46.32-167.9,51.28-92.63s60.38-65.34,75.27-86S782.62,40.14,843,54.2" transform="translate(-0.74 -0.5)" fill="none" stroke="url(#linear-gradient-21)"></path><path id="_22" data-name="22" d="M1,377.6c3.31-2,115.46,34.21,58.72-62.86s72,1.65,85.2-42.19c0,0,65.34,38.05,96.77-19s110-14.06,117.45,19,177-63.68,144.74,49.63S479.07,258.49,561,286.62c0,0,57.89,35.56,73.61-14.07,0,0-46.32-167.9,51.28-92.63s60.38-65.34,75.27-86S782.62,42.62,843,56.68" transform="translate(-0.74 -0.5)" fill="none" stroke="url(#linear-gradient-22)"></path><path id="_23" data-name="23" d="M1,380.08c3.31-2,115.46,34.21,58.72-62.86s72,1.65,85.2-42.18c0,0,65.34,38,96.77-19s110-14.06,117.45,19,177-63.69,144.74,49.62S479.07,261,561,289.1c0,0,57.89,35.56,73.61-14.06,0,0-46.32-167.91,51.28-92.64s60.38-65.34,75.27-86S782.62,45.1,843,59.16" transform="translate(-0.74 -0.5)" fill="none" stroke="url(#linear-gradient-23)"></path><path id="_24" data-name="24" d="M1,382.56c3.31-2,115.46,34.21,58.72-62.86s72,1.66,85.2-42.18c0,0,65.34,38.05,96.77-19s110-14.06,117.45,19,177-63.69,144.74,49.62S479.07,263.46,561,291.58c0,0,57.89,35.56,73.61-14.06,0,0-46.32-167.91,51.28-92.64s60.38-65.34,75.27-86S782.62,47.58,843,61.64" transform="translate(-0.74 -0.5)" fill="none" stroke="url(#linear-gradient-24)"></path><path id="_25" data-name="25" d="M1,385c3.31-2,115.46,34.22,58.72-62.86s72,1.66,85.2-42.18c0,0,65.34,38.05,96.77-19s110-14.07,117.45,19,177-63.69,144.74,49.63S479.07,265.94,561,294.06c0,0,57.89,35.57,73.61-14.06,0,0-46.32-167.9,51.28-92.64s60.38-65.34,75.27-86S782.62,50.06,843,64.12" transform="translate(-0.74 -0.5)" fill="none" stroke="url(#linear-gradient-25)"></path><path id="_26" data-name="26" d="M1,387.52c3.31-2,115.46,34.22,58.72-62.86s72,1.66,85.2-42.18c0,0,65.34,38,96.77-19s110-14.06,117.45,19,177-63.69,144.74,49.63S479.07,268.42,561,296.54c0,0,57.89,35.57,73.61-14.06,0,0-46.32-167.9,51.28-92.63s60.38-65.35,75.27-86S782.62,52.54,843,66.6" transform="translate(-0.74 -0.5)" fill="none" stroke="url(#linear-gradient-26)"></path><path id="_27" data-name="27" d="M1,390c3.31-2,115.46,34.21,58.72-62.87s72,1.66,85.2-42.18c0,0,65.34,38.05,96.77-19s110-14.06,117.45,19,177-63.69,144.74,49.63S479.07,270.9,561,299c0,0,57.89,35.57,73.61-14.06,0,0-46.32-167.9,51.28-92.63s60.38-65.35,75.27-86S782.62,55,843,69.09" transform="translate(-0.74 -0.5)" fill="none" stroke="url(#linear-gradient-27)"></path><path id="_28" data-name="28" d="M1,392.49c3.31-2,115.46,34.21,58.72-62.86s72,1.65,85.2-42.19c0,0,65.34,38.05,96.77-19s110-14.06,117.45,19,177-63.68,144.74,49.63S479.07,273.38,561,301.5c0,0,57.89,35.57,73.61-14.06,0,0-46.32-167.9,51.28-92.63s60.38-65.35,75.27-86S782.62,57.51,843,71.57" transform="translate(-0.74 -0.5)" fill="none" stroke="url(#linear-gradient-28)"></path><path id="_29" data-name="29" d="M1,395c3.31-2,115.46,34.21,58.72-62.86s72,1.65,85.2-42.19c0,0,65.34,38.05,96.77-19s110-14.06,117.45,19,177-63.68,144.74,49.63S479.07,275.86,561,304c0,0,57.89,35.56,73.61-14.07,0,0-46.32-167.9,51.28-92.63s60.38-65.34,75.27-86S782.62,60,843,74.05" transform="translate(-0.74 -0.5)" fill="none" stroke="url(#linear-gradient-29)"></path><path id="_30" data-name="30" d="M1,397.45c3.31-2,115.46,34.21,58.72-62.86s72,1.65,85.2-42.18c0,0,65.34,38,96.77-19s110-14.06,117.45,19,177-63.69,144.74,49.62S479.07,278.35,561,306.47c0,0,57.89,35.56,73.61-14.06,0,0-46.32-167.91,51.28-92.64s60.38-65.34,75.27-86S782.62,62.47,843,76.53" transform="translate(-0.74 -0.5)" fill="none" stroke="url(#linear-gradient-30)"></path><path id="_31" data-name="31" d="M1,399.93c3.31-2,115.46,34.21,58.72-62.86s72,1.66,85.2-42.18c0,0,65.34,38,96.77-19s110-14.06,117.45,19,177-63.69,144.74,49.63S479.07,280.83,561,309c0,0,57.89,35.57,73.61-14.06,0,0-46.32-167.91,51.28-92.64s60.38-65.34,75.27-86S782.62,65,843,79" transform="translate(-0.74 -0.5)" fill="none" stroke="url(#linear-gradient-31)"></path><path id="_32" data-name="32" d="M1,402.41c3.31-2,115.46,34.22,58.72-62.86s72,1.66,85.2-42.18c0,0,65.34,38.05,96.77-19s110-14.07,117.45,19,177-63.69,144.74,49.63S479.07,283.31,561,311.43c0,0,57.89,35.57,73.61-14.06,0,0-46.32-167.91,51.28-92.64s60.38-65.34,75.27-86S782.62,67.43,843,81.49" transform="translate(-0.74 -0.5)" fill="none" stroke="url(#linear-gradient-32)"></path></svg> 